<svg xmlns="http://www.w3.org/2000/svg" viewBox="0 0 280 360">
  <!-- Green Parrot Perched - Cartoon Flat Style -->

  <!-- Perch/branch -->
  <rect x="48" y="295" width="184" height="22" rx="11" fill="#8D6E63"/>
  <rect x="48" y="295" width="184" height="8" rx="4" fill="#A1887F"/>

  <!-- Tail feathers -->
  <path d="M128 280 Q120 310 108 340 Q114 342 122 336 Q128 320 132 305 Q136 320 138 342 Q142 344 146 342 Q148 320 152 305 Q156 320 158 336 Q166 342 172 340 Q160 310 152 280 Z" fill="#2E7D32"/>
  <!-- Tail feather detail -->
  <path d="M120 290 Q112 315 108 340" stroke="#1B5E20" stroke-width="1.5" fill="none"/>
  <path d="M140 292 Q140 320 138 342" stroke="#1B5E20" stroke-width="1.5" fill="none"/>
  <path d="M160 290 Q168 315 172 340" stroke="#1B5E20" stroke-width="1.5" fill="none"/>

  <!-- Body -->
  <ellipse cx="140" cy="228" rx="62" ry="68" fill="#43A047"/>

  <!-- Wing detail - right -->
  <path d="M198 198 Q226 210 228 248 Q226 278 208 290 Q198 272 196 248 Q194 224 198 198 Z" fill="#388E3C"/>
  <!-- Wing feather lines -->
  <path d="M200 210 Q220 225 218 255" stroke="#2E7D32" stroke-width="2" fill="none"/>
  <path d="M202 225 Q218 238 216 265" stroke="#2E7D32" stroke-width="2" fill="none"/>

  <!-- Wing detail - left with red/yellow -->
  <path d="M82 198 Q54 210 52 248 Q54 278 72 290 Q82 272 84 248 Q86 224 82 198 Z" fill="#388E3C"/>
  <!-- Red accent on left wing -->
  <path d="M68 215 Q56 232 58 258 Q62 250 68 235 Z" fill="#E53935"/>
  <!-- Yellow accent -->
  <path d="M76 208 Q64 222 64 242 Q68 234 76 220 Z" fill="#FDD835"/>
  <!-- Wing feather lines -->
  <path d="M80 210 Q60 225 62 255" stroke="#2E7D32" stroke-width="2" fill="none"/>

  <!-- Chest lighter green -->
  <ellipse cx="140" cy="250" rx="36" ry="42" fill="#66BB6A"/>

  <!-- Feet/claws on perch -->
  <path d="M118 295 Q110 302 104 298 Q108 292 118 290 Z" fill="#FF6F00"/>
  <path d="M118 295 Q114 304 106 305 Q108 298 118 290 Z" fill="#FF6F00"/>
  <path d="M118 295 Q116 305 110 310 Q110 302 118 290 Z" fill="#FF6F00"/>
  <path d="M162 295 Q170 302 176 298 Q172 292 162 290 Z" fill="#FF6F00"/>
  <path d="M162 295 Q166 304 174 305 Q172 298 162 290 Z" fill="#FF6F00"/>
  <path d="M162 295 Q164 305 170 310 Q170 302 162 290 Z" fill="#FF6F00"/>

  <!-- Neck -->
  <ellipse cx="140" cy="175" rx="34" ry="28" fill="#43A047"/>

  <!-- Head -->
  <ellipse cx="140" cy="140" rx="56" ry="52" fill="#43A047"/>

  <!-- White eye ring area -->
  <ellipse cx="118" cy="140" rx="22" ry="20" fill="#E8F5E9"/>
  <ellipse cx="162" cy="140" rx="22" ry="20" fill="#E8F5E9"/>

  <!-- Eyes -->
  <ellipse cx="118" cy="140" rx="14" ry="14" fill="#1A1A1A"/>
  <ellipse cx="162" cy="140" rx="14" ry="14" fill="#1A1A1A"/>
  <!-- Iris yellow -->
  <ellipse cx="118" cy="140" rx="8" ry="8" fill="#FDD835"/>
  <ellipse cx="162" cy="140" rx="8" ry="8" fill="#FDD835"/>
  <!-- Pupil -->
  <ellipse cx="118" cy="140" rx="5" ry="5" fill="#1A1A1A"/>
  <ellipse cx="162" cy="140" rx="5" ry="5" fill="#1A1A1A"/>
  <!-- Shine -->
  <ellipse cx="115" cy="137" rx="3" ry="3" fill="#ffffff"/>
  <ellipse cx="159" cy="137" rx="3" ry="3" fill="#ffffff"/>

  <!-- Beak - orange hooked -->
  <path d="M128 155 Q140 148 152 155 Q148 165 140 170 Q132 165 128 155 Z" fill="#FF6F00"/>
  <path d="M132 155 Q140 150 148 155 Q144 162 140 165 Q136 162 132 155 Z" fill="#E65100"/>
  <!-- Beak hook -->
  <path d="M136 166 Q140 172 144 166 Q140 170 136 166 Z" fill="#BF360C"/>
  <!-- Nostril area -->
  <ellipse cx="140" cy="153" rx="8" ry="4" fill="#E65100" opacity="0.5"/>

  <!-- Head feather crest -->
  <path d="M125 96 Q135 78 140 70 Q145 78 155 96 Q148 88 140 84 Q132 88 125 96 Z" fill="#43A047"/>
  <path d="M130 92 Q140 75 145 90 Q140 80 130 92 Z" fill="#2E7D32"/>

  <!-- Cheek color spot -->
  <ellipse cx="104" cy="152" rx="12" ry="10" fill="#FDD835" opacity="0.7"/>
  <ellipse cx="176" cy="152" rx="12" ry="10" fill="#FDD835" opacity="0.7"/>
</svg>
